<svg id="Layer_1" enable-background="new 0 0 512 512" height="512" viewBox="0 0 512 512" width="512" xmlns="http://www.w3.org/2000/svg"><g><path d="m422.04 64.863-118.553-60.247c-15.365-3.018-31.238-4.616-47.487-4.616-12.355 0-24.493.924-36.357 2.69v484.625c11.864 1.765 24.002 2.689 36.357 2.689 135.311 0 245.002-109.691 245.002-245.002 0-71.242-30.418-135.371-78.962-180.139z" fill="#1c2e7a"/><path d="m221.643 487.594v-485.184c-119.042 16.708-210.645 118.944-210.645 242.592s91.603 225.884 210.645 242.592z" fill="#2a428c"/><path d="m311.532 6.323c-.067.676-.104 1.359-.104 2.052v236.63h102.423v-187.361c-29.097-24.54-63.978-42.436-102.319-51.321z" fill="#3c58a0"/><path d="m362.639 41c0-6.052 2.944-10.482 6.142-13.515-17.906-9.308-37.094-16.492-57.25-21.163-.067.676-.104 1.359-.104 2.052v236.63h63.189l4.05-6.172c-17.167-2-17.263-20-17.263-20v-66.296c-7.096-14.588 4.881-19.162 4.881-19.162v-30.374c-10.982-10.982 0-19.537 0-19.537-3.938-3.938-3.646-10.713-3.646-10.713s.001-18.5.001-31.75z" fill="#2a428c"/><path d="m346.072 17.091c-3.732 4.028-6.016 9.416-6.016 15.34v62.124c5.848-5.654 13.806-9.139 22.583-9.139s16.735 3.485 22.583 9.139v-57.724c-12.361-7.69-25.449-14.321-39.15-19.74z" fill="#6289cc"/><path d="m362.639 41c0-6.056 2.949-10.488 6.15-13.521-7.363-3.83-14.937-7.311-22.717-10.388-3.732 4.028-6.016 9.416-6.016 15.34v62.124c5.848-5.654 13.806-9.139 22.583-9.139.567 0 1.13.016 1.69.045 1.039-1.28 1.956-1.997 1.956-1.997-3.938-3.938-3.646-10.713-3.646-10.713s0-18.501 0-31.751z" fill="#4b6bb2"/><path d="m385.222 245.005v-103.723c-5.848 5.654-13.806 9.139-22.583 9.139s-16.735-3.485-22.583-9.139v103.723z" fill="#6289cc"/><path d="m361.404 218.833v-66.296c-.37-.762-.678-1.49-.949-2.198-7.908-.526-15.04-3.877-20.399-9.057v103.723h34.56l4.05-6.172c-17.166-2-17.262-20-17.262-20z" fill="#4b6bb2"/><path d="m319.616 8.375c0-.005.001-.01.001-.015-5.308-1.424-10.686-2.675-16.13-3.744-.16 1.233-.248 2.486-.248 3.759v228.143h16.377z" fill="#4b6bb2"/><path d="m405.662 51.03v185.488h16.377v-171.655c-5.251-4.844-10.715-9.459-16.377-13.833z" fill="#6289cc"/><g><path d="m162.27 150.491c-3.285-3.108-3.427-8.291-.319-11.576l63.553-67.158c.028-.029.055-.059.084-.087 3.326-3.411 7.154-6.215 11.379-8.333 4.043-2.029 8.963-.392 10.99 3.651s.392 8.963-3.651 10.99c-2.572 1.29-4.911 3-6.95 5.083l-63.509 67.111c-3.113 3.289-8.297 3.424-11.577.319z" fill="#ff4155"/></g><ellipse cx="362.636" cy="117.915" fill="#3c58a0" rx="34.645" ry="34.645" transform="matrix(.605 -.796 .796 .605 49.233 335.142)"/><path d="m366.285 83.463c-19.027-2.015-36.086 11.776-38.101 30.803-2.015 19.028 11.776 36.086 30.804 38.101.809.086 1.612.132 2.412.162-7.088-14.581 4.885-19.154 4.885-19.154v-30.375c-10.983-10.982 0-19.537 0-19.537z" fill="#2a428c"/><g><path d="m149.866 127.652c-8.471-.897-15.04-8.096-14.975-16.793.07-9.257 7.631-16.704 16.888-16.634 22.161.167 45.835-2.991 70.363-9.387 38.031-9.915 77.88-7.875 115.239 5.901l31.055 11.451c8.686 3.203 13.13 12.84 9.927 21.525-3.203 8.684-12.836 13.127-21.525 9.927l-31.055-11.451c-30.902-11.396-63.816-13.093-95.185-4.916-27.37 7.136-53.974 10.659-79.073 10.47-.559-.004-1.112-.035-1.659-.093z" fill="#e9efff"/></g><g><path d="m441.52 255.677c-2.172 0-4.339-.858-5.949-2.56l-160.926-170.056c-7.972-8.144-20.157-10.187-30.34-5.084-4.043 2.028-8.963.392-10.99-3.651s-.392-8.963 3.651-10.99c16.603-8.325 36.474-4.976 49.446 8.333.028.029.056.057.084.087l160.97 170.102c3.109 3.285 2.966 8.468-.319 11.576-1.583 1.5-3.607 2.243-5.627 2.243z" fill="#ff7186"/></g><g><path d="m70.48 255.677c-2.02 0-4.044-.743-5.627-2.241-3.284-3.108-3.427-8.291-.319-11.576l97.417-102.945c3.108-3.285 8.29-3.428 11.577-.319 3.285 3.109 3.427 8.292.319 11.576l-97.418 102.945c-1.61 1.701-3.778 2.56-5.949 2.56z" fill="#ff4155"/></g><path d="m441.519 242.522h-371.038c-12.739 0-23.161 10.423-23.161 23.161v214.967c0 12.739 10.422 23.161 23.161 23.161h371.038c12.739 0 23.161-10.422 23.161-23.161v-214.967c0-12.738-10.422-23.161-23.161-23.161z" fill="#e9efff"/><path d="m70.481 242.522c-12.739 0-23.161 10.423-23.161 23.161v214.967c0 12.739 10.423 23.161 23.161 23.161h141.983c-.018-2.662 1.165-4.856 2.253-6.299.879-1.166.833-2.789-.1-3.912-11.553-13.908-1.502-29.341 1.216-33.011.409-.553.631-1.218.631-1.906v-38.325c0-.978-.421-1.922-1.182-2.536-16.82-13.573-9.205-30.926-5.525-37.273.806-1.39.421-3.13-.835-4.131-9.388-7.481-5.352-18.199-4.031-21.066.233-.505.332-1.056.285-1.611l-.714-8.477c-.124-1.474.781-2.841 2.187-3.302l22.669-7.437c1.712-.562 2.62-2.427 2.007-4.121l-5.146-14.22c-.276-.761-.83-1.39-1.552-1.758l-10.364-5.288c-1.069-.546-1.742-1.644-1.742-2.845v-10.043c0-.911-.412-1.765-1.1-2.363-18.273-15.882-8.703-33.919-4.536-40.051.827-1.216.763-2.852-.226-3.941-2.38-2.62-3.164-5.133-3.109-7.375h-133.069z" fill="#bec8f7"/><g fill="#ff4155"><path d="m228.834 295.006c-.026-.069-.053-.138-.082-.206-1.358-3.303-4.542-5.436-8.113-5.436-.002 0-.005 0-.007 0-3.574.003-6.758 2.142-8.112 5.45-.024.057-.046.115-.068.173l-19.914 52.287c-1.488 3.906.473 8.28 4.38 9.769 3.908 1.489 8.282-.472 9.769-4.381l3.103-8.146h21.545l3.066 8.125c1.482 3.924 5.857 5.882 9.756 4.409 3.912-1.476 5.886-5.843 4.41-9.756zm-13.277 34.37 5.056-13.274 5.009 13.274z"/><path d="m130.143 317.341c-6.353-2.344-12.28-4.893-14.264-5.76-.941-.821-.956-1.902-.868-2.51.108-.757.673-2.613 3.558-3.482 6.976-2.099 13.535 3.048 13.731 3.204 3.2 2.648 7.942 2.222 10.62-.962 2.69-3.201 2.277-7.977-.924-10.667-.516-.435-12.825-10.582-27.793-6.073-7.676 2.313-13.109 8.378-14.178 15.829-1.007 7.014 2.035 13.76 7.937 17.608.334.218.685.409 1.05.572.308.137 7.639 3.401 15.893 6.445 1.641.605 6.947 2.839 6.352 6.172-.451 2.527-3.767 5.255-8.338 5.255-5.01 0-9.822-2.009-12.872-5.375-2.807-3.098-7.594-3.333-10.693-.526-3.098 2.807-3.334 7.595-.526 10.693 5.959 6.577 14.74 10.349 24.091 10.349 11.633 0 21.408-7.458 23.243-17.734 1.386-7.77-2.094-17.902-16.019-23.038z"/><path d="m290.997 290.725c-3.504-2.283-8.193-1.29-10.475 2.214l-10.466 16.078-10.592-16.222c-2.286-3.501-6.979-4.482-10.477-2.2-3.501 2.286-4.486 6.977-2.2 10.478l15.703 24.05-.06 24.827c-.01 4.182 3.371 7.579 7.552 7.589h.019c4.172 0 7.56-3.377 7.57-7.552l.061-24.853 15.581-23.935c2.279-3.504 1.287-8.193-2.216-10.474z"/><path d="m185.746 289.938h-29.289c-4.181 0-7.57 3.389-7.57 7.57s3.389 7.57 7.57 7.57h7.014v45.464c0 4.181 3.389 7.57 7.57 7.57s7.57-3.389 7.57-7.57v-45.464h7.133c4.181 0 7.57-3.389 7.57-7.57.002-4.181-3.387-7.57-7.568-7.57z"/></g><g fill="#3c58a0"><path d="m315.453 347.296c-1.476 3.912.498 8.28 4.41 9.756 3.899 1.472 8.274-.485 9.756-4.409l3.066-8.125h21.545l3.103 8.146c1.487 3.909 5.861 5.87 9.769 4.381 3.907-1.488 5.868-5.862 4.38-9.769l-19.914-52.287c-.022-.058-.045-.116-.069-.173-1.353-3.308-4.538-5.447-8.112-5.45-.002 0-.005 0-.007 0-3.571 0-6.754 2.133-8.113 5.436-.029.068-.056.137-.082.206zm22.946-17.92 5.009-13.274 5.056 13.274z"/><path d="m378.275 289.938h29.289c4.181 0 7.57 3.389 7.57 7.57s-3.389 7.57-7.57 7.57h-7.014v45.464c0 4.181-3.389 7.57-7.57 7.57s-7.57-3.389-7.57-7.57v-45.464h-7.133c-4.181 0-7.57-3.389-7.57-7.57-.003-4.181 3.387-7.57 7.568-7.57z"/></g><g fill="#3c58a0"><path d="m342.65 384.244c-.879-4.312-4.563-7.498-8.957-7.746-4.388-.226-8.413 2.504-9.773 6.69-.031.095-.06.189-.087.285l-12.152 42.63-12.602-42.713c-.028-.097-.059-.194-.091-.289-1.401-4.175-5.443-6.888-9.844-6.591-4.394.294-8.044 3.52-8.895 7.938l-11.761 65.164c-.803 4.45 2.154 8.71 6.604 9.513 4.45.801 8.71-2.153 9.513-6.604l6.754-37.422 11.146 37.777c.029.098.059.194.092.291 1.33 3.96 5.02 6.611 9.194 6.611h.052c4.195-.022 7.882-2.718 9.175-6.708.03-.094.059-.187.086-.281l10.76-37.745 7.178 37.56c.849 4.442 5.142 7.363 9.58 6.505 4.443-.849 7.355-5.138 6.506-9.58z"/><path d="m151.362 376.482c-4.522 0-8.189 3.666-8.189 8.189v24.122h-29.93v-24.122c0-4.523-3.666-8.189-8.189-8.189-4.522 0-8.189 3.666-8.189 8.189v66.917c0 4.523 3.666 8.189 8.189 8.189 4.522 0 8.189-3.666 8.189-8.189v-26.418h29.93v26.417c0 4.523 3.666 8.189 8.189 8.189 4.522 0 8.189-3.666 8.189-8.189v-66.917c-.001-4.522-3.667-8.188-8.189-8.188z"/><path d="m406.945 443.093h-19.75v-16.775h17.69c4.522 0 8.189-3.666 8.189-8.189s-3.666-8.189-8.189-8.189h-17.69v-16.775h19.75c4.522 0 8.189-3.666 8.189-8.189s-3.666-8.189-8.189-8.189h-27.939c-4.522 0-8.189 3.666-8.189 8.189v66.305c0 4.523 3.666 8.189 8.189 8.189h27.939c4.522 0 8.189-3.666 8.189-8.189s-3.666-8.188-8.189-8.188z"/></g><path d="m254.221 400.646-32.63-22.561c-3.085-2.133-7.17-2.133-10.255 0l-32.629 22.56c-2.435 1.684-3.889 4.456-3.889 7.416v42.698c0 4.979 4.037 9.016 9.016 9.016h19.443v-27.849c0-7.271 5.915-13.186 13.187-13.186 7.271 0 13.186 5.915 13.186 13.186v27.849h19.443c4.979 0 9.016-4.037 9.016-9.016v-42.698c.001-2.96-1.453-5.732-3.888-7.415z" fill="#ff4155"/><path d="m215.282 417.823c-16.82-13.573-9.205-30.926-5.525-37.273.304-.524.438-1.099.42-1.664l-31.47 21.759c-2.435 1.684-3.888 4.456-3.888 7.416v42.698c0 4.98 4.037 9.016 9.016 9.016h19.443v-27.849c0-7.129 5.689-12.94 12.765-13.165-.195-.353-.44-.679-.761-.938z" fill="#e80054"/><path d="m216.464 416.702c-8.409 0-15.225 6.816-15.225 15.225v27.849h30.451v-27.849c-.001-8.409-6.817-15.225-15.226-15.225z" fill="#f9a0b1"/><g><path d="m441.519 512h-371.038c-17.286 0-31.35-14.064-31.35-31.35v-214.967c0-17.286 14.064-31.349 31.35-31.349h371.038c17.286 0 31.35 14.064 31.35 31.349v214.967c0 17.286-14.064 31.35-31.35 31.35zm-371.038-261.289c-8.256 0-14.973 6.716-14.973 14.972v214.967c0 8.256 6.717 14.973 14.973 14.973h371.038c8.256 0 14.973-6.717 14.973-14.973v-214.967c0-8.256-6.717-14.972-14.973-14.972z" fill="#f9a0b1"/></g><path d="m215.342 495.623h-144.861c-8.256 0-14.973-6.717-14.973-14.973v-214.967c0-8.256 6.717-14.972 14.973-14.972h136.701c-.129-.291-.299-.568-.523-.814-5.135-5.653-2.894-10.825-.647-13.791.406-.536.603-1.154.628-1.772h-136.159c-17.286 0-31.35 14.064-31.35 31.349v214.967c0 17.287 14.064 31.35 31.35 31.35h145.714c-.13-.3-.297-.585-.517-.833-5.265-5.918-2.943-11.027-.961-13.655.422-.559.625-1.225.625-1.889z" fill="#ff7186"/><path d="m248.824 79.876c-8.956 1.016-17.868 2.664-26.683 4.962-24.528 6.395-48.201 9.554-70.363 9.387-9.256-.07-16.818 7.377-16.888 16.634-.065 8.697 6.504 15.896 14.975 16.793.546.058 1.1.09 1.659.093 25.099.189 51.702-3.334 79.073-10.47 7.402-1.93 14.891-3.302 22.418-4.135-19.171-13.906-4.279-33.15-4.191-33.264z" fill="#bec8f7"/></g></svg>