<svg id="Capa_1" enable-background="new 0 0 512 512" height="512" viewBox="0 0 512 512" width="512" xmlns="http://www.w3.org/2000/svg"><g><path d="m448.836 274.945c-8.811 0-15.954 7.143-15.954 15.954v82.942c0 58.586-47.664 106.25-106.25 106.25s-106.25-47.664-106.25-106.25v-56.305c28.035-2.467 55.763-10.996 80.551-24.825 26.266-14.654 49.498-35.393 67.187-59.976 25.942-36.053 36.29-65.438 36.718-66.671 1.278-3.681 1.163-7.701-.32-11.304-30.938-75.136-106.342-135.473-109.537-138.005-6.903-5.47-16.93-4.309-22.405 2.591-5.474 6.9-4.318 16.934 2.579 22.412.698.554 68.077 54.569 97.357 119.362-3.919 9.312-13.363 29.451-30.293 52.979-30.809 42.817-78.048 69.065-129.603 72.016-2.855.164-5.61.246-8.189.246s-5.335-.083-8.189-.246c-51.556-2.951-98.795-29.199-129.604-72.016-16.805-23.356-26.33-43.643-30.285-52.997 29.284-64.788 96.652-118.79 97.343-119.339 6.905-5.473 8.068-15.508 2.595-22.414s-15.509-8.068-22.413-2.595c-3.195 2.532-78.599 62.869-109.538 138.006-1.483 3.603-1.598 7.624-.32 11.304.427 1.233 10.777 30.618 36.718 66.672 17.689 24.582 40.922 45.321 67.187 59.975 24.788 13.829 52.518 22.358 80.552 24.825v56.305c0 76.181 61.978 138.159 138.158 138.159s138.159-61.978 138.159-138.159v-82.942c0-8.811-7.143-15.954-15.954-15.954z" fill="#f5f0f0"/><g fill="#e8ded8"><path d="m335.474 479.72c2.917.241 5.865.371 8.842.371 58.586 0 106.25-47.664 106.25-106.25v-82.942c0-5.54 2.826-10.416 7.112-13.277-2.531-1.689-5.571-2.677-8.842-2.677-8.811 0-15.954 7.143-15.954 15.954v82.942c0 55.608-42.944 101.37-97.408 105.879z"/><path d="m206.158 373.841v-56.305c-28.035-2.467-55.764-10.996-80.552-24.825-26.266-14.654-49.498-35.393-67.187-59.975-25.942-36.053-36.291-65.438-36.718-66.672-1.278-3.681-1.163-7.701.32-11.304 30.939-75.136 106.343-135.473 109.538-138.005.349-.276.711-.524 1.075-.767-5.604-3.739-13.197-3.643-18.759.767-3.195 2.532-78.599 62.869-109.538 138.006-1.483 3.603-1.598 7.624-.32 11.304.427 1.233 10.777 30.618 36.718 66.672 17.689 24.582 40.922 45.321 67.187 59.975 24.788 13.829 52.518 22.358 80.552 24.825v56.305c0 76.181 61.978 138.159 138.158 138.159 2.971 0 5.917-.105 8.842-.291-72.074-4.577-129.316-64.659-129.316-137.869z"/><path d="m275.155 41.758c.698.554 68.077 54.569 97.357 119.362-3.919 9.312-13.363 29.451-30.293 52.979-30.679 42.635-77.65 68.835-128.949 71.969.218.013.435.034.653.047 2.854.164 5.61.246 8.189.246s5.334-.083 8.189-.246c51.555-2.951 98.794-29.199 129.603-72.016 16.93-23.528 26.374-43.667 30.293-52.979-29.28-64.794-96.659-118.808-97.357-119.362-6.897-5.478-8.053-15.512-2.579-22.412 1.063-1.339 2.299-2.455 3.648-3.355-6.836-4.562-16.134-3.197-21.333 3.355-5.474 6.9-4.318 16.934 2.579 22.412z"/></g><circle cx="123.784" cy="29.259" fill="#365e7d" r="29.259"/><path d="m136.381 55.671c-3.812 1.823-8.087 2.843-12.599 2.843-16.164 0-29.257-13.094-29.257-29.257 0-16.153 13.093-29.257 29.257-29.257 4.512 0 8.787 1.02 12.599 2.843-9.859 4.718-16.658 14.773-16.658 26.414 0 11.651 6.799 21.706 16.658 26.414z" fill="#2b4d66"/><circle cx="285.071" cy="29.259" fill="#365e7d" r="29.259"/><path d="m297.669 55.673c-3.812 1.823-8.087 2.843-12.599 2.843-16.164 0-29.257-13.094-29.257-29.257 0-16.153 13.094-29.257 29.257-29.257 4.512 0 8.787 1.02 12.599 2.843-9.859 4.718-16.658 14.773-16.658 26.414-.001 11.651 6.799 21.706 16.658 26.414z" fill="#2b4d66"/><circle cx="448.836" cy="290.899" fill="#ffd064" r="60.03"/><path d="m456.88 350.383c-2.634.357-5.314.541-8.041.541-33.151 0-60.033-26.87-60.033-60.021 0-33.162 26.882-60.033 60.033-60.033 2.726 0 5.406.184 8.041.541-29.366 3.911-52.004 29.056-52.004 59.492 0 30.424 22.637 55.569 52.004 59.48z" fill="#ebb044"/><circle cx="448.836" cy="290.899" fill="#ebb044" r="23.696"/><path d="m282.779 314.951v.042c-.011 2.393-1.521 4.542-3.754 5.382-12.317 4.606-25.027 8.105-37.908 10.434-2.776.5-4.776 2.936-4.776 5.754v37.28c0 2.18.085 4.35.245 6.499.191 2.627-1.361 5.052-3.85 5.956-8.062 2.925-16.763 4.52-25.836 4.52-4.286 0-8.509-.362-12.604-1.053-6.392-1.074-12.498-2.946-18.241-5.51-2.042-.904-3.361-2.925-3.446-5.159-.053-1.744-.085-3.499-.085-5.254v-37.28c0-2.829-2.021-5.254-4.808-5.754-11.072-2-22.006-4.872-32.685-8.562-2.276-.798-3.882-2.872-3.957-5.286-.021-.67-.043-1.34-.043-2.01 0-19.624 7.467-37.514 19.698-50.98 1.542-1.712 3.978-2.34 6.158-1.606 4.457 1.51 8.988 2.808 13.583 3.904 8.7 2.074 17.614 3.404 26.676 3.914 2.553.149 5.01.223 7.286.223s4.722-.075 7.275-.223c15.157-.862 29.898-3.967 43.864-9.083 2.148-.776 4.574-.223 6.158 1.436 13.03 13.615 21.05 32.079 21.05 52.416z" fill="#a2c6fd"/><path d="m194.296 389.767c-6.392-1.074-12.498-2.946-18.241-5.51-2.042-.904-3.361-2.925-3.446-5.159-.053-1.744-.085-3.499-.085-5.254v-37.28c0-2.829-2.021-5.254-4.808-5.754-11.072-2-22.006-4.872-32.685-8.562-2.276-.798-3.882-2.872-3.957-5.286-.021-.67-.043-1.34-.043-2.01 0-19.624 7.467-37.514 19.698-50.98 1.542-1.712 3.978-2.34 6.158-1.606 4.457 1.51 8.988 2.808 13.583 3.904-12.03 17.465-13.88 36.27 1.414 47.619 22.305 16.548 17.987 53.68 22.412 75.878z" fill="#7898d5"/></g></svg>