<svg id="Capa_1" enable-background="new 0 0 512 512" height="512" viewBox="0 0 512 512" width="512" xmlns="http://www.w3.org/2000/svg"><g><g><path d="m106.914 405.091c-52.198-52.199-81.801-105.726-98.568-150.604-28.51-76.31 19.195-157.349 95.564-172.118 7.358-1.423 17.691 7.99 25.539 7.861 9.158-.151 18.699.368 28.605 1.699 0 0 39.09 45.82 23.467 105.185 0 0-7.342 28.361-26.848 37.039-8.67 3.857-17.815 6.643-26.147 6.643 0 0 .781 37.233 53.116 89.568 46.867 46.867 89.568 53.116 89.568 53.116 0-8.331 2.785-17.476 6.641-26.145 8.678-19.507 37.046-27.301 37.046-27.301 59.365-15.622 103.687 29.69 103.687 29.69 1.331 9.905 1.85 19.447 1.699 28.605-.129 7.848 10.776 12.41 9.353 19.768-14.77 76.368-95.809 124.073-172.118 95.563-44.878-16.768-98.406-46.371-150.604-98.569z" fill="#c0df8f"/><path d="m409.267 456.415c-32.096 46.21-93.307 69.075-151.744 47.241-44.883-16.768-98.414-46.37-150.61-98.566s-81.797-105.726-98.565-150.609c-21.834-58.437 1.031-119.648 47.241-151.744-23.097 33.151-30.801 77.027-14.953 119.456 16.767 44.883 46.37 98.414 98.566 150.61s105.726 81.798 150.61 98.566c42.428 15.847 86.304 8.143 119.455-14.954z" fill="#a2d162"/><g fill="#f5f0f0"><path d="m430.3 356.668c1.327 9.91 1.846 19.444 1.702 28.603-.128 7.848-.943 15.472-2.366 22.825h-.016c-63.161-47.001-151.76-50.757-151.76-50.757 8.672-19.508 22.777-36.603 22.777-36.603 59.357-15.624 129.663 35.932 129.663 35.932z"/><path d="m191.275 211.373s-17.095 14.106-36.603 22.777c0 0-3.756-88.6-50.757-151.76l-.008-.008c7.352-1.439 14.985-2.246 22.833-2.374 9.159-.144 18.693.376 28.603 1.702 0 .001 51.556 70.307 35.932 129.663z"/></g></g><path d="m248.212 179.638c1.44 13.138 12.082 23.402 25.269 24.325 1.091.077 2.174.154 3.258.224 8.041.545 14.291 7.223 14.291 15.284v30.471c0 10.25 11.732 16.067 19.885 9.859 14.879-11.334 34.673-28.191 46.818-45.671 2.874-4.139 7.621-6.551 12.662-6.523 37.393.189 74.785-1.014 112.178-3.643 10.425-.727 19.277-7.278 23.22-16.494 1.049-2.419 1.748-5.034 2.049-7.768 5.538-50.586 5.538-101.18 0-151.773-1.44-13.124-12.089-23.339-25.255-24.262-55.704-3.909-111.402-4.692-167.099-2.349-13.998.58-28.002 1.363-42 2.349-13.173.923-23.828 11.138-25.269 24.262-5.538 50.571-5.538 101.137-.007 151.709z" fill="#f5f0f0"/><g><path d="m408.901 77.4-15.423 41.639-41.049 18.95c-9.372-8.735-18.625-17.612-27.73-26.633-15.547-15.405-16.241-40.499-1.348-56.538l.533-.572c14.96-15.99 40.034-17.054 56.493-2.628 9.639 8.448 19.152 17.047 28.524 25.782z" fill="#dd636e"/><path d="m352.427 137.991c-9.374-8.737-18.614-17.616-27.723-26.641-15.554-15.398-16.248-40.492-1.355-56.531l.189-.203c-4.621 5.019 4.463 21.11 20.326 36.177 9.294 8.824 22.391 21.112 31.764 29.848" fill="#da4a54"/><path d="m437.977 160.569-.54.58c-14.961 15.976-40.034 17.054-56.486 2.62-9.638-8.449-19.151-17.048-28.523-25.783l56.472-60.588c9.372 8.735 18.618 17.62 27.723 26.641 15.554 15.397 16.239 40.484 1.354 56.53z" fill="#ffd064"/><path d="m437.621 160.949-.189.203c-14.961 15.976-40.034 17.054-56.486 2.62-9.638-8.449-19.151-17.048-28.523-25.783l19.441-20.859c9.372 8.735 18.786 17.439 28.242 26.084 16.143 14.766 32.825 22.691 37.515 17.735z" fill="#ebb044"/></g></g></svg>