<svg id="Capa_1" enable-background="new 0 0 512 512" height="512" viewBox="0 0 512 512" width="512" xmlns="http://www.w3.org/2000/svg"><g><path d="m475.72 500.587h-439.44c-13.72-104.55-15.76-209.1-6.12-313.66 1.68-18.26 3.72-36.53 6.12-54.8 56.79-5.24 113.59-8.45 170.38-9.61 7.7-.16 15.4-.28 23.11-.37 25.19-.28 50.38-.16 75.57.37 42.4.87 84.8 2.87 127.2 6.02 14.4 1.07 28.79 2.26 43.18 3.59 2.4 18.27 4.44 36.54 6.12 54.8 9.64 104.56 7.6 209.11-6.12 313.66z" fill="#f5f0f0"/><path d="m432.54 128.537c-9.95 46.54-51.31 81.44-100.81 81.44-51.75 0-94.59-38.13-101.96-87.83 25.19-.28 50.38-.16 75.57.37 42.4.87 84.8 2.87 127.2 6.02z" fill="#e8ded8"/><path d="m481.84 186.927h-451.68c1.68-18.26 3.72-36.53 6.12-54.8 56.79-5.24 113.59-8.45 170.38-9.61h98.68c56.79 1.16 113.59 4.37 170.38 9.61 2.4 18.27 4.44 36.54 6.12 54.8z" fill="#e8ded8"/><path d="m487.703 94.58h-463.406c-9.277 0-16.797 7.52-16.797 16.797v30.819c0 9.277 7.52 16.797 16.797 16.797h463.406c9.277 0 16.797-7.52 16.797-16.797v-30.819c0-9.277-7.52-16.797-16.797-16.797z" fill="#a2c6fd"/><path d="m61.21 158.993h-36.91c-9.28 0-16.8-7.53-16.8-16.8v-30.82c0-9.28 7.52-16.8 16.8-16.8h36.91c-9.28 0-16.8 7.52-16.8 16.8v30.82c0 9.27 7.52 16.8 16.8 16.8z" fill="#7898d5"/><path d="m451.188 330.709c-.104-8.357-.283-16.713-.528-25.061-.509-17.552-1.319-35.075-2.431-52.533-.358-5.577-4.447-10.213-9.939-11.249-38.552-7.311-77.65-7.311-116.202 0-5.502 1.036-9.591 5.672-9.949 11.249-1.112 17.458-1.922 34.981-2.431 52.533-.245 8.347-.424 16.704-.528 25.061-.49 38.863.49 77.791 2.958 116.4.358 5.577 4.447 10.213 9.949 11.249 19.276 3.655 38.684 5.483 58.101 5.483 19.408 0 38.825-1.828 58.101-5.483 5.493-1.036 9.581-5.672 9.939-11.249 2.471-38.609 3.45-77.537 2.96-116.4z" fill="#c5e3ee"/><path d="m97.253 500.587h-23.778c-4.263-82.357-3.724-165.541 1.634-247.691.383-5.88 4.436-10.716 9.822-11.72 55.151-10.233 111.088-10.233 166.239 0 5.386 1.005 9.438 5.84 9.822 11.72 5.358 82.15 5.897 165.334 1.634 247.691h-23.778z" fill="#c5e3ee"/><path d="m271.66 500.587h-26.05c4.52-79.58 4.19-159.94-.98-239.39-50.86-7.72-102.3-7.72-153.16 0-5.17 79.45-5.5 159.81-.98 239.39h-26.05c-4.67-83.62-4.08-168.08 1.79-251.49.42-5.97 4.86-10.88 10.76-11.9 60.42-10.39 121.7-10.39 182.12 0 5.9 1.02 10.34 5.93 10.76 11.9 5.87 83.41 6.46 167.87 1.79 251.49z" fill="#a2c6fd"/><circle cx="351.018" cy="106.891" fill="#c0df8f" r="103.088"/><path d="m361.13 209.487c-3.32.32-6.7.49-10.11.49-56.93 0-103.09-46.15-103.09-103.09 0-56.93 46.16-103.08 103.09-103.08 3.41 0 6.79.17 10.11.49-52.2 5.08-92.98 49.07-92.98 102.59 0 53.53 40.78 97.52 92.98 102.6z" fill="#a2d162"/><g><path d="m395.534 85.214c-5.425-.233-10.85-.421-16.274-.568-3.279-.089-5.908-2.718-5.997-5.997-.147-5.425-.335-10.85-.568-16.274-.121-2.806-2.131-5.207-4.887-5.751-11.193-2.209-22.385-2.209-33.578 0-2.756.544-4.766 2.944-4.887 5.751-.233 5.425-.421 10.85-.568 16.274-.089 3.279-2.718 5.908-5.997 5.997-5.425.147-10.85.335-16.274.568-2.806.121-5.207 2.131-5.751 4.887-2.209 11.193-2.209 22.385 0 33.578.544 2.756 2.944 4.766 5.751 4.887 5.425.233 10.85.421 16.274.568 3.279.089 5.908 2.718 5.997 5.997.147 5.425.335 10.85.568 16.274.121 2.806 2.131 5.207 4.887 5.751 11.193 2.209 22.385 2.209 33.578 0 2.756-.544 4.766-2.944 4.887-5.751.233-5.425.421-10.85.568-16.274.089-3.279 2.718-5.908 5.997-5.997 5.425-.147 10.85-.335 16.274-.568 2.806-.121 5.207-2.131 5.751-4.887 2.209-11.193 2.209-22.385 0-33.578-.544-2.755-2.945-4.766-5.751-4.887z" fill="#f5f0f0"/></g><path d="m455.55 329.517c-.11-8.87-.3-17.74-.56-26.6-.54-18.63-1.4-37.23-2.58-55.76-.38-5.92-4.72-10.84-10.55-11.94-40.92-7.76-82.42-7.76-123.34 0-5.84 1.1-10.18 6.02-10.56 11.94-1.18 18.53-2.04 37.13-2.58 55.76-.26 8.86-.45 17.73-.56 26.6-.52 41.25.52 82.57 3.14 123.55.38 5.92 4.72 10.84 10.56 11.94 20.46 3.88 41.06 5.82 61.67 5.82 20.6 0 41.21-1.94 61.67-5.82 5.83-1.1 10.17-6.02 10.55-11.94 2.62-40.98 3.66-82.3 3.14-123.55zm-122.26-70.48c31.16-4.86 62.63-4.86 93.79 0 .83 14.6 1.47 29.23 1.9 43.88h-97.58c.42-14.65 1.06-29.28 1.89-43.88zm93.79 182.14c-31.16 4.87-62.63 4.87-93.79 0-2.12-37.07-2.94-74.39-2.46-111.66h98.72c.47 37.27-.35 74.59-2.47 111.66z" fill="#a2c6fd"/><path d="m204.108 415.955c-7.989 0-14.466-6.476-14.466-14.466v-27.933c0-7.989 6.476-14.466 14.466-14.466 7.989 0 14.466 6.476 14.466 14.466v27.933c0 7.99-6.477 14.466-14.466 14.466z" fill="#a2c6fd"/><path d="m504.5 508.197h-497c-4.142 0-7.5-3.358-7.5-7.5s3.358-7.5 7.5-7.5h497c4.143 0 7.5 3.358 7.5 7.5s-3.357 7.5-7.5 7.5z" fill="#a2d162"/></g></svg>