<svg id="Capa_1" enable-background="new 0 0 512 512" height="512" viewBox="0 0 512 512" width="512" xmlns="http://www.w3.org/2000/svg"><g><g><path d="m438.497 457.03c1.659 5.789 4.038 11.888 7.335 18.224l-30.813 16.844h-316.472l-33.955-52.972 35.315-96.435 345.925 54.095s-4.667 6.459-7.788 17.626c-1.247 4.44-2.246 9.622-2.606 15.453-.237 3.657-.216 7.572.155 11.713.431 4.851 1.348 10.023 2.904 15.452z" fill="#ffd064"/><path d="m84.54 436.018c0 16.705 10.497 31.012 25.252 36.648 4.35 1.675 9.067 2.583 13.989 2.583h322.041c10.15 0 18.38 8.23 18.38 18.38s-8.23 18.37-18.38 18.37h-322.04c-6.413 0-12.641-.797-18.595-2.308-32.941-8.311-57.387-38.189-57.387-73.673v-360.037c0-41.896 34.085-75.981 75.982-75.981h322.041c10.15 0 18.38 8.23 18.38 18.37v360.037c0 5.075-2.052 9.67-5.381 12.999-3.329 3.319-7.924 5.381-12.999 5.381h-322.041c-1.552 0-3.084.092-4.595.276-19.483 2.277-34.647 18.87-34.647 38.955z" fill="#f5f0f0"/><path d="m445.829 475.252h-322.047c-21.636 0-39.237-17.601-39.237-39.236 0-20.068 15.148-36.655 34.609-38.953h.033v-.004c1.508-.177 3.039-.278 4.595-.278h322.047c10.148 0 18.374-8.226 18.374-18.374s-8.226-18.374-18.374-18.374h-322.047v-360.033c-41.897 0-75.982 34.085-75.982 75.981v359.902c0 .044-.003.088-.003.133 0 41.897 34.086 75.984 75.985 75.984h322.047c10.148 0 18.374-8.226 18.374-18.374s-8.226-18.374-18.374-18.374z" fill="#e8ded8"/><g fill="#ebb044"><path d="m438.043 414.411c-1.247 4.44-2.246 9.622-2.606 15.453h-310.219c-4.265 0-7.726-3.451-7.726-7.726 0-4.265 3.461-7.726 7.726-7.726h20.865l32.582 8.821 30.831-8.821h228.547z"/><path d="m438.497 457.03h-190.975c-4.265 0-7.726-3.462-7.726-7.726 0-4.265 3.461-7.726 7.726-7.726h188.07c.432 4.851 1.349 10.023 2.905 15.452z"/></g><path d="m209.497 491.747-31.707-16.497-31.707 16.497v-77.336h63.414z" fill="#dd636e"/></g><g><path d="m310.866 124.134-48.122 19.774-20.499 48.847c10.614 10.614 21.39 21.083 32.328 31.373 18.679 17.571 48.092 17.349 66.259-.75l.648-.648c18.108-18.176 18.321-47.58.75-66.259-10.289-10.939-20.75-21.723-31.364-32.337z" fill="#dd636e"/><path d="m242.244 192.757c10.616 10.616 21.394 21.07 32.337 31.365 18.671 17.579 48.083 17.358 66.251-.742l.23-.23c-5.686 5.618-24.903-4.357-43.198-22.311-10.716-10.52-25.643-25.349-36.258-35.964" fill="#da4a54"/><path d="m212.282 93.512-.656.656c-18.091 18.176-18.321 47.58-.742 66.25 10.29 10.938 20.751 21.723 31.365 32.337l68.62-68.62c-10.614-10.614-21.399-21.075-32.337-31.365-18.67-17.579-48.074-17.349-66.25.742z" fill="#ffd064"/><path d="m211.852 93.945-.23.23c-18.091 18.176-18.321 47.58-.742 66.25 10.29 10.938 20.751 21.723 31.365 32.337l23.624-23.624c-10.614-10.614-21.194-21.279-31.706-31.996-17.955-18.295-27.921-37.502-22.311-43.197z" fill="#ebb044"/></g><g fill="#7898d5"><path d="m406.822 287.687h-230.212c-4.267 0-7.726-3.459-7.726-7.726s3.459-7.726 7.726-7.726h230.212c4.267 0 7.726 3.459 7.726 7.726s-3.459 7.726-7.726 7.726z"/><path d="m353.837 320.648h-124.242c-4.267 0-7.726-3.459-7.726-7.726s3.459-7.726 7.726-7.726h124.241c4.267 0 7.726 3.459 7.726 7.726.001 4.267-3.458 7.726-7.725 7.726z"/></g></g></svg>